<?xml version="1.0" encoding="UTF-8"?>
<!DOCTYPE svg PUBLIC "-//W3C//DTD SVG 1.1//EN" "http://www.w3.org/Graphics/SVG/1.1/DTD/svg11.dtd">
<svg xmlns="http://www.w3.org/2000/svg" version="1.1" width="535px" height="235px" style="shape-rendering:geometricPrecision; text-rendering:geometricPrecision; image-rendering:optimizeQuality; fill-rule:evenodd; clip-rule:evenodd" xmlns:xlink="http://www.w3.org/1999/xlink">
<g><path style="opacity:0.959" fill="#4097a2" d="M -0.5,0.5 C -0.5,0.166667 -0.5,-0.166667 -0.5,-0.5C 2.5,-0.5 5.5,-0.5 8.5,-0.5C 92.6575,10.2279 176.991,20.7279 261.5,31C 262.663,72.429 262.83,113.929 262,155.5C 244.579,123.659 227.412,91.6591 210.5,59.5C 140.292,39.3648 69.9587,19.6982 -0.5,0.5 Z"/></g>
<g><path style="opacity:0.958" fill="#4097a2" d="M 525.5,-0.5 C 528.5,-0.5 531.5,-0.5 534.5,-0.5C 534.5,-0.166667 534.5,0.166667 534.5,0.5C 464.43,19.6845 394.43,39.1845 324.5,59C 306.873,91.0867 289.373,123.253 272,155.5C 271.17,113.929 271.337,72.429 272.5,31C 357.009,20.7279 441.343,10.2279 525.5,-0.5 Z"/></g>
<g><path style="opacity:0.849" fill="#4097a2" d="M 6.5,200.5 C 14.5,200.5 22.5,200.5 30.5,200.5C 30.5,202.833 30.5,205.167 30.5,207.5C 22.5,207.5 14.5,207.5 6.5,207.5C 6.5,205.167 6.5,202.833 6.5,200.5 Z"/></g>
<g><path style="opacity:0.869" fill="#4097a2" d="M 51.5,234.5 C 49.1667,234.5 46.8333,234.5 44.5,234.5C 44.5,227.833 44.5,221.167 44.5,214.5C 49.1785,214.666 53.8452,214.499 58.5,214C 61.1667,212 61.1667,210 58.5,208C 53.8452,207.501 49.1785,207.334 44.5,207.5C 44.5,205.167 44.5,202.833 44.5,200.5C 50.5933,200.139 56.5933,200.639 62.5,202C 68.6982,207.369 69.0316,213.036 63.5,219C 59.6372,220.354 55.6372,220.854 51.5,220.5C 51.5,225.167 51.5,229.833 51.5,234.5 Z"/></g>
<g><path style="opacity:0.844" fill="#4097a2" d="M 99.5,210.5 C 98.6618,210.842 98.3284,211.508 98.5,212.5C 97.6618,212.842 97.3284,213.508 97.5,214.5C 96.6618,214.842 96.3284,215.508 96.5,216.5C 93.5139,222.426 90.5139,228.426 87.5,234.5C 85.1667,234.5 82.8333,234.5 80.5,234.5C 84.8437,222.811 90.0104,211.478 96,200.5C 98.0347,203.561 99.2014,206.895 99.5,210.5 Z"/></g>
<g><path style="opacity:0.875" fill="#4097a2" d="M 150.5,234.5 C 149.833,234.5 149.167,234.5 148.5,234.5C 143.167,228.5 137.5,222.833 131.5,217.5C 131.5,216.833 131.167,216.5 130.5,216.5C 130.5,215.833 130.167,215.5 129.5,215.5C 129.5,214.833 129.167,214.5 128.5,214.5C 128.5,213.833 128.167,213.5 127.5,213.5C 127.5,212.833 127.167,212.5 126.5,212.5C 126.5,211.833 126.167,211.5 125.5,211.5C 124.411,207.922 124.245,204.255 125,200.5C 131.333,206.833 137.667,213.167 144,219.5C 144.5,213.175 144.666,206.842 144.5,200.5C 146.5,200.5 148.5,200.5 150.5,200.5C 150.5,211.833 150.5,223.167 150.5,234.5 Z"/></g>
<g><path style="opacity:0.872" fill="#4097a2" d="M 181.5,234.5 C 176.167,234.5 170.833,234.5 165.5,234.5C 165.5,232.5 165.5,230.5 165.5,228.5C 169.514,228.666 173.514,228.499 177.5,228C 181.846,226.519 182.346,224.352 179,221.5C 167.465,220.983 163.465,215.316 167,204.5C 168.579,202.959 170.413,201.792 172.5,201C 177.823,200.501 183.156,200.334 188.5,200.5C 188.5,202.833 188.5,205.167 188.5,207.5C 183.238,207.195 178.072,207.529 173,208.5C 172.175,210.701 172.675,212.534 174.5,214C 186.792,214.434 190.625,220.268 186,231.5C 184.348,232.399 182.848,233.399 181.5,234.5 Z"/></g>
<g><path style="opacity:0.851" fill="#4097a2" d="M 228.5,234.5 C 223.833,234.5 219.167,234.5 214.5,234.5C 201.6,227.743 199.1,218.076 207,205.5C 213.414,200.981 220.581,199.315 228.5,200.5C 228.5,202.833 228.5,205.167 228.5,207.5C 222.895,206.908 217.561,207.741 212.5,210C 207.06,218.498 209.06,224.498 218.5,228C 221.817,228.498 225.15,228.665 228.5,228.5C 228.5,230.5 228.5,232.5 228.5,234.5 Z"/></g>
<g><path style="opacity:0.813" fill="#4097a2" d="M 243.5,200.5 C 251.167,200.5 258.833,200.5 266.5,200.5C 266.5,202.833 266.5,205.167 266.5,207.5C 258.833,207.5 251.167,207.5 243.5,207.5C 243.5,205.167 243.5,202.833 243.5,200.5 Z"/></g>
<g><path style="opacity:0.876" fill="#4097a2" d="M 281.5,200.5 C 283.833,200.5 286.167,200.5 288.5,200.5C 288.5,209.167 288.5,217.833 288.5,226.5C 286.167,226.5 283.833,226.5 281.5,226.5C 281.5,217.833 281.5,209.167 281.5,200.5 Z"/></g>
<g><path style="opacity:0.813" fill="#4097a2" d="M 320.5,200.5 C 328.167,200.5 335.833,200.5 343.5,200.5C 343.5,202.833 343.5,205.167 343.5,207.5C 335.833,207.5 328.167,207.5 320.5,207.5C 320.5,205.167 320.5,202.833 320.5,200.5 Z"/></g>
<g><path style="opacity:0.873" fill="#4097a2" d="M 374.5,234.5 C 368.833,234.5 363.167,234.5 357.5,234.5C 357.5,232.5 357.5,230.5 357.5,228.5C 361.846,228.666 366.179,228.499 370.5,228C 373.473,226.776 374.14,224.776 372.5,222C 369.576,221.012 366.576,220.346 363.5,220C 357.533,216.608 356.033,211.774 359,205.5C 360.637,203.19 362.804,201.69 365.5,201C 370.489,200.501 375.489,200.334 380.5,200.5C 380.5,202.833 380.5,205.167 380.5,207.5C 375.821,207.334 371.155,207.501 366.5,208C 363.833,210 363.833,212 366.5,214C 376.954,213.45 381.454,218.284 380,228.5C 378.64,231.023 376.807,233.023 374.5,234.5 Z"/></g>
<g><path style="opacity:0.815" fill="#4097a2" d="M 393.5,200.5 C 401.833,200.5 410.167,200.5 418.5,200.5C 418.5,202.833 418.5,205.167 418.5,207.5C 410.167,207.5 401.833,207.5 393.5,207.5C 393.5,205.167 393.5,202.833 393.5,200.5 Z"/></g>
<g><path style="opacity:0.839" fill="#4097a2" d="M 438.5,234.5 C 436.167,234.5 433.833,234.5 431.5,234.5C 431.5,223.167 431.5,211.833 431.5,200.5C 433.833,200.5 436.167,200.5 438.5,200.5C 438.5,211.833 438.5,223.167 438.5,234.5 Z"/></g>
<g><path style="opacity:0.845" fill="#4097a2" d="M 471.5,210.5 C 470.662,210.842 470.328,211.508 470.5,212.5C 469.662,212.842 469.328,213.508 469.5,214.5C 468.596,215.209 468.263,216.209 468.5,217.5C 465.051,222.735 462.384,228.402 460.5,234.5C 457.833,234.5 455.167,234.5 452.5,234.5C 457.381,223.069 462.548,211.736 468,200.5C 470.584,203.336 471.751,206.669 471.5,210.5 Z"/></g>
<g><path style="opacity:0.841" fill="#4097a2" d="M 496.5,200.5 C 498.833,200.5 501.167,200.5 503.5,200.5C 503.5,209.167 503.5,217.833 503.5,226.5C 501.167,226.5 498.833,226.5 496.5,226.5C 496.5,217.833 496.5,209.167 496.5,200.5 Z"/></g>
<g><path style="opacity:0.981" fill="#4097a2" d="M 21.5,234.5 C 19.5,234.5 17.5,234.5 15.5,234.5C 15.5,225.833 15.5,217.167 15.5,208.5C 17.5,208.5 19.5,208.5 21.5,208.5C 21.5,217.167 21.5,225.833 21.5,234.5 Z"/></g>
<g><path style="opacity:0.945" fill="#4097a2" d="M 266.5,234.5 C 258.833,234.5 251.167,234.5 243.5,234.5C 243.5,225.833 243.5,217.167 243.5,208.5C 245.5,208.5 247.5,208.5 249.5,208.5C 249.5,210.5 249.5,212.5 249.5,214.5C 252.5,214.5 255.5,214.5 258.5,214.5C 258.5,216.5 258.5,218.5 258.5,220.5C 255.5,220.5 252.5,220.5 249.5,220.5C 249.5,223.167 249.5,225.833 249.5,228.5C 255.167,228.5 260.833,228.5 266.5,228.5C 266.5,230.5 266.5,232.5 266.5,234.5 Z"/></g>
<g><path style="opacity:0.94" fill="#4097a2" d="M 343.5,234.5 C 335.833,234.5 328.167,234.5 320.5,234.5C 320.5,225.833 320.5,217.167 320.5,208.5C 322.5,208.5 324.5,208.5 326.5,208.5C 326.5,210.5 326.5,212.5 326.5,214.5C 329.5,214.5 332.5,214.5 335.5,214.5C 335.5,216.5 335.5,218.5 335.5,220.5C 332.5,220.5 329.5,220.5 326.5,220.5C 326.5,223.167 326.5,225.833 326.5,228.5C 332.167,228.5 337.833,228.5 343.5,228.5C 343.5,230.5 343.5,232.5 343.5,234.5 Z"/></g>
<g><path style="opacity:0.841" fill="#4097a2" d="M 409.5,234.5 C 407.167,234.5 404.833,234.5 402.5,234.5C 402.5,225.833 402.5,217.167 402.5,208.5C 404.833,208.5 407.167,208.5 409.5,208.5C 409.5,217.167 409.5,225.833 409.5,234.5 Z"/></g>
<g><path style="opacity:0.827" fill="#4097a2" d="M 99.5,210.5 C 100.376,210.369 101.043,210.702 101.5,211.5C 105.121,219.071 108.454,226.738 111.5,234.5C 108.833,234.5 106.167,234.5 103.5,234.5C 101.173,228.511 98.8399,222.511 96.5,216.5C 97.3382,216.158 97.6716,215.492 97.5,214.5C 98.3382,214.158 98.6716,213.492 98.5,212.5C 99.3382,212.158 99.6716,211.492 99.5,210.5 Z"/></g>
<g><path style="opacity:0.833" fill="#4097a2" d="M 471.5,210.5 C 472.376,210.369 473.043,210.702 473.5,211.5C 477.62,218.873 480.954,226.539 483.5,234.5C 481.167,234.5 478.833,234.5 476.5,234.5C 474.106,228.713 471.44,223.046 468.5,217.5C 469.404,216.791 469.737,215.791 469.5,214.5C 470.338,214.158 470.672,213.492 470.5,212.5C 471.338,212.158 471.672,211.492 471.5,210.5 Z"/></g>
<g><path style="opacity:0.831" fill="#4097a2" d="M 125.5,211.5 C 126.167,211.5 126.5,211.833 126.5,212.5C 127.167,212.5 127.5,212.833 127.5,213.5C 128.167,213.5 128.5,213.833 128.5,214.5C 129.167,214.5 129.5,214.833 129.5,215.5C 130.167,215.5 130.5,215.833 130.5,216.5C 131.167,216.5 131.5,216.833 131.5,217.5C 131.5,223.167 131.5,228.833 131.5,234.5C 129.167,234.5 126.833,234.5 124.5,234.5C 124.175,226.648 124.508,218.982 125.5,211.5 Z"/></g>
<g><path style="opacity:0.838" fill="#4097a2" d="M 67.5,234.5 C 64.8333,234.5 62.1667,234.5 59.5,234.5C 57.7788,230.727 55.7788,227.061 53.5,223.5C 56.3719,222.217 59.2053,222.217 62,223.5C 64.3716,226.91 66.2049,230.577 67.5,234.5 Z"/></g>
<g><path style="opacity:0.921" fill="#4097a2" d="M 306.5,234.5 C 298.167,234.5 289.833,234.5 281.5,234.5C 281.5,232.5 281.5,230.5 281.5,228.5C 289.833,228.5 298.167,228.5 306.5,228.5C 306.5,230.5 306.5,232.5 306.5,234.5 Z"/></g>
<g><path style="opacity:0.911" fill="#4097a2" d="M 521.5,234.5 C 513.167,234.5 504.833,234.5 496.5,234.5C 496.5,232.5 496.5,230.5 496.5,228.5C 504.833,228.5 513.167,228.5 521.5,228.5C 521.5,230.5 521.5,232.5 521.5,234.5 Z"/></g>
</svg>
