<?xml version="1.0" encoding="UTF-8"?>
<!DOCTYPE svg PUBLIC "-//W3C//DTD SVG 1.1//EN" "http://www.w3.org/Graphics/SVG/1.1/DTD/svg11.dtd">
<svg xmlns="http://www.w3.org/2000/svg" version="1.1" width="175px" height="99px" style="shape-rendering:geometricPrecision; text-rendering:geometricPrecision; image-rendering:optimizeQuality; fill-rule:evenodd; clip-rule:evenodd" xmlns:xlink="http://www.w3.org/1999/xlink">
<g><path style="opacity:1" fill="#92918f" d="M 67.5,-0.5 C 72.1667,-0.5 76.8333,-0.5 81.5,-0.5C 81.5,1.83333 81.5,4.16667 81.5,6.5C 76.9362,7.21623 72.2695,7.8829 67.5,8.5C 67.5,5.5 67.5,2.5 67.5,-0.5 Z"/></g>
<g><path style="opacity:1" fill="#5e5d5c" d="M 58.5,-0.5 C 61.5,-0.5 64.5,-0.5 67.5,-0.5C 67.5,2.5 67.5,5.5 67.5,8.5C 66.0721,11.3033 65.4054,14.3033 65.5,17.5C 62.8728,18.0916 60.2062,18.4249 57.5,18.5C 58.7128,16.1078 59.3795,13.4411 59.5,10.5C 59.308,6.80978 58.9747,3.14312 58.5,-0.5 Z"/></g>
<g><path style="opacity:1" fill="#dfdfde" d="M 81.5,6.5 C 85.1817,6.3347 88.8484,6.50137 92.5,7C 93.3331,9.08112 93.3331,11.2478 92.5,13.5C 103.201,12.3069 113.201,14.3069 122.5,19.5C 122.5,20.5 122.5,21.5 122.5,22.5C 119.455,22.5079 116.455,22.8413 113.5,23.5C 107.145,23.9636 100.979,25.297 95,27.5C 92,26.1667 89,26.1667 86,27.5C 84.2894,27.5607 82.956,26.8941 82,25.5C 81.5,26.6667 80.6667,27.5 79.5,28C 74.7909,28.4687 70.2909,29.6354 66,31.5C 65.6667,31.1667 65.3333,30.8333 65,30.5C 61.9106,31.4658 59.0772,32.7991 56.5,34.5C 52.9591,26.7322 46.9591,22.3989 38.5,21.5C 44.8028,20.3414 51.1362,19.3414 57.5,18.5C 60.2062,18.4249 62.8728,18.0916 65.5,17.5C 65.4054,14.3033 66.0721,11.3033 67.5,8.5C 72.2695,7.8829 76.9362,7.21623 81.5,6.5 Z M 81.5,11.5 C 83.924,11.1924 86.2573,11.5258 88.5,12.5C 86.4902,14.1713 84.1569,14.838 81.5,14.5C 81.5,13.5 81.5,12.5 81.5,11.5 Z"/></g>
<g><path style="opacity:1" fill="#999895" d="M 81.5,11.5 C 81.5,12.5 81.5,13.5 81.5,14.5C 77.3609,15.5629 73.0275,16.2296 68.5,16.5C 68.2865,14.8561 68.6198,13.3561 69.5,12C 73.4862,11.5012 77.4862,11.3345 81.5,11.5 Z"/></g>
<g><path style="opacity:1" fill="#dddddb" d="M 113.5,23.5 C 111.502,24.1475 109.502,24.9808 107.5,26C 112.843,26.1461 118.176,26.1461 123.5,26C 125.844,26.8372 127.844,28.1706 129.5,30C 128.6,34.3646 127.267,38.5313 125.5,42.5C 121.937,43.2824 118.603,44.6157 115.5,46.5C 115.167,46.5 114.833,46.5 114.5,46.5C 109.167,46.5 103.833,46.5 98.5,46.5C 94.8811,46.0307 92.3811,44.0307 91,40.5C 90.0138,41.1712 88.8471,41.1712 87.5,40.5C 87.0046,38.5183 86.5046,36.5183 86,34.5C 85.7468,37.2004 85.7468,39.867 86,42.5C 84.1634,42.3346 82.1634,41.668 80,40.5C 79.3333,41.1667 78.6667,41.8333 78,42.5C 72.1147,41.3909 66.2814,41.3909 60.5,42.5C 59.1667,39.8333 57.8333,37.1667 56.5,34.5C 59.0772,32.7991 61.9106,31.4658 65,30.5C 65.3333,30.8333 65.6667,31.1667 66,31.5C 70.2909,29.6354 74.7909,28.4687 79.5,28C 80.6667,27.5 81.5,26.6667 82,25.5C 82.956,26.8941 84.2894,27.5607 86,27.5C 89,26.1667 92,26.1667 95,27.5C 100.979,25.297 107.145,23.9636 113.5,23.5 Z"/></g>
<g><path style="opacity:1" fill="#9c9c9a" d="M 38.5,21.5 C 46.9591,22.3989 52.9591,26.7322 56.5,34.5C 57.8333,37.1667 59.1667,39.8333 60.5,42.5C 61.9131,45.6612 63.5797,48.6612 65.5,51.5C 63.6967,56.6786 61.03,61.512 57.5,66C 58.2524,66.6708 58.5858,67.5041 58.5,68.5C 50.2279,58.0423 42.0612,47.3756 34,36.5C 32.0558,32.6818 31.3891,28.6818 32,24.5C 33.4653,22.085 35.632,21.085 38.5,21.5 Z"/></g>
<g><path style="opacity:1" fill="#dadad9" d="M 87.5,40.5 C 87.6287,42.2161 87.962,43.8828 88.5,45.5C 87.8529,46.2739 87.5195,47.2739 87.5,48.5C 88.9216,56.1217 89.4216,63.7884 89,71.5C 88.6667,69.1667 88.3333,66.8333 88,64.5C 86.3876,64.048 85.3876,62.7147 85,60.5C 84.6667,60.8333 84.3333,61.1667 84,61.5C 82.6667,60.1667 81.3333,58.8333 80,57.5C 79.6667,57.8333 79.3333,58.1667 79,58.5C 75.867,56.1898 72.5337,54.1898 69,52.5C 68.6174,53.056 68.1174,53.3893 67.5,53.5C 67.1667,53.5 66.8333,53.5 66.5,53.5C 66.6716,52.5084 66.3382,51.8417 65.5,51.5C 63.5797,48.6612 61.9131,45.6612 60.5,42.5C 66.2814,41.3909 72.1147,41.3909 78,42.5C 78.6667,41.8333 79.3333,41.1667 80,40.5C 82.1634,41.668 84.1634,42.3346 86,42.5C 85.7468,39.867 85.7468,37.2004 86,34.5C 86.5046,36.5183 87.0046,38.5183 87.5,40.5 Z"/></g>
<g><path style="opacity:1" fill="#dadad9" d="M 122.5,19.5 C 131.454,24.476 135.787,32.1426 135.5,42.5C 135.613,52.8017 132.78,62.1351 127,70.5C 124.894,73.1177 122.394,75.1177 119.5,76.5C 114.528,77.4216 109.528,77.5883 104.5,77C 100.172,75.0732 96.0052,73.5732 92,72.5C 91.6667,73.1667 91.3333,73.8333 91,74.5C 90.5419,64.7926 89.7086,55.1259 88.5,45.5C 87.962,43.8828 87.6287,42.2161 87.5,40.5C 88.8471,41.1712 90.0138,41.1712 91,40.5C 92.3811,44.0307 94.8811,46.0307 98.5,46.5C 97.5084,46.3284 96.8417,46.6618 96.5,47.5C 95.7611,47.369 95.0944,47.5357 94.5,48C 96.7446,52.4074 96.7446,56.5741 94.5,60.5C 96.4382,67.1361 100.772,69.6361 107.5,68C 111.345,66.2007 115.345,64.7007 119.5,63.5C 125.971,57.5593 128.805,50.226 128,41.5C 127.329,42.2524 126.496,42.5858 125.5,42.5C 127.267,38.5313 128.6,34.3646 129.5,30C 127.844,28.1706 125.844,26.8372 123.5,26C 118.176,26.1461 112.843,26.1461 107.5,26C 109.502,24.9808 111.502,24.1475 113.5,23.5C 116.455,22.8413 119.455,22.5079 122.5,22.5C 122.5,21.5 122.5,20.5 122.5,19.5 Z"/></g>
<g><path style="opacity:1" fill="#dbdbda" d="M 96.5,47.5 C 101.211,48.0103 105.878,48.8436 110.5,50C 112.068,52.3041 113.235,54.8041 114,57.5C 114.499,53.8484 114.665,50.1817 114.5,46.5C 114.833,46.5 115.167,46.5 115.5,46.5C 115.335,49.8499 115.502,53.1832 116,56.5C 116.803,53.7558 117.803,51.0891 119,48.5C 121.335,46.5998 123.502,44.5998 125.5,42.5C 126.496,42.5858 127.329,42.2524 128,41.5C 128.805,50.226 125.971,57.5593 119.5,63.5C 115.345,64.7007 111.345,66.2007 107.5,68C 100.772,69.6361 96.4382,67.1361 94.5,60.5C 96.7446,56.5741 96.7446,52.4074 94.5,48C 95.0944,47.5357 95.7611,47.369 96.5,47.5 Z"/></g>
<g><path style="opacity:1" fill="#6497a2" d="M 125.5,42.5 C 123.502,44.5998 121.335,46.5998 119,48.5C 117.803,51.0891 116.803,53.7558 116,56.5C 115.502,53.1832 115.335,49.8499 115.5,46.5C 118.603,44.6157 121.937,43.2824 125.5,42.5 Z"/></g>
<g><path style="opacity:1" fill="#5c929d" d="M 96.5,47.5 C 96.8417,46.6618 97.5084,46.3284 98.5,46.5C 103.833,46.5 109.167,46.5 114.5,46.5C 114.665,50.1817 114.499,53.8484 114,57.5C 113.235,54.8041 112.068,52.3041 110.5,50C 105.878,48.8436 101.211,48.0103 96.5,47.5 Z"/></g>
<g><path style="opacity:1" fill="#d1d1d0" d="M 88.5,45.5 C 89.7086,55.1259 90.5419,64.7926 91,74.5C 91.3333,73.8333 91.6667,73.1667 92,72.5C 96.0052,73.5732 100.172,75.0732 104.5,77C 109.528,77.5883 114.528,77.4216 119.5,76.5C 115.788,79.3573 111.455,80.8573 106.5,81C 100.651,81.3344 94.8174,81.8344 89,82.5C 87.4085,82.3948 85.9085,82.0614 84.5,81.5C 84.5737,79.9218 84.2403,78.2552 83.5,76.5C 80.7266,69.9478 76.7266,64.2812 71.5,59.5C 69.7745,57.7721 68.4411,55.7721 67.5,53.5C 68.1174,53.3893 68.6174,53.056 69,52.5C 72.5337,54.1898 75.867,56.1898 79,58.5C 79.3333,58.1667 79.6667,57.8333 80,57.5C 81.3333,58.8333 82.6667,60.1667 84,61.5C 84.3333,61.1667 84.6667,60.8333 85,60.5C 85.3876,62.7147 86.3876,64.048 88,64.5C 88.3333,66.8333 88.6667,69.1667 89,71.5C 89.4216,63.7884 88.9216,56.1217 87.5,48.5C 87.5195,47.2739 87.8529,46.2739 88.5,45.5 Z"/></g>
<g><path style="opacity:1" fill="#282828" d="M 66.5,53.5 C 66.8333,53.5 67.1667,53.5 67.5,53.5C 68.4411,55.7721 69.7745,57.7721 71.5,59.5C 67.686,59.3491 66.0193,57.3491 66.5,53.5 Z"/></g>
<g><path style="opacity:1" fill="#8a8a88" d="M 65.5,51.5 C 66.3382,51.8417 66.6716,52.5084 66.5,53.5C 66.0193,57.3491 67.686,59.3491 71.5,59.5C 76.7266,64.2812 80.7266,69.9478 83.5,76.5C 83.9153,78.9477 82.9153,80.2811 80.5,80.5C 74.9411,79.0519 69.6078,77.0519 64.5,74.5C 63.5416,74.0472 62.7083,73.3805 62,72.5C 62.0097,81.1557 62.1764,89.8223 62.5,98.5C 61.8333,98.5 61.1667,98.5 60.5,98.5C 60.6664,89.4938 60.4998,80.4938 60,71.5C 59.4867,70.4734 58.9867,69.4734 58.5,68.5C 58.5858,67.5041 58.2524,66.6708 57.5,66C 61.03,61.512 63.6967,56.6786 65.5,51.5 Z"/></g>
<g><path style="opacity:1" fill="#9b9b9a" d="M 64.5,74.5 C 69.6078,77.0519 74.9411,79.0519 80.5,80.5C 82.9153,80.2811 83.9153,78.9477 83.5,76.5C 84.2403,78.2552 84.5737,79.9218 84.5,81.5C 83.5931,87.1064 83.2598,92.773 83.5,98.5C 83.1667,98.5 82.8333,98.5 82.5,98.5C 82.5,93.5 82.5,88.5 82.5,83.5C 81.1667,83.5 79.8333,83.5 78.5,83.5C 78.1435,82.1301 77.3102,81.1301 76,80.5C 75.8122,82.3434 74.9789,84.0101 73.5,85.5C 72.8333,85.5 72.1667,85.5 71.5,85.5C 70.8826,85.3893 70.3826,85.056 70,84.5C 69.5045,82.5273 69.3379,80.5273 69.5,78.5C 66.4124,78.8034 64.7458,77.4701 64.5,74.5 Z"/></g>
<g><path style="opacity:1" fill="#757472" d="M 64.5,74.5 C 64.7458,77.4701 66.4124,78.8034 69.5,78.5C 69.3379,80.5273 69.5045,82.5273 70,84.5C 70.3826,85.056 70.8826,85.3893 71.5,85.5C 71.5,89.8333 71.5,94.1667 71.5,98.5C 68.5,98.5 65.5,98.5 62.5,98.5C 62.1764,89.8223 62.0097,81.1557 62,72.5C 62.7083,73.3805 63.5416,74.0472 64.5,74.5 Z"/></g>
<g><path style="opacity:1" fill="#1a1a1a" d="M 78.5,83.5 C 79.8333,83.5 81.1667,83.5 82.5,83.5C 82.5,88.5 82.5,93.5 82.5,98.5C 80.5,98.5 78.5,98.5 76.5,98.5C 75.8917,93.0557 76.5583,88.0557 78.5,83.5 Z"/></g>
<g><path style="opacity:1" fill="#6f6f6a" d="M 78.5,83.5 C 76.5583,88.0557 75.8917,93.0557 76.5,98.5C 75.5,98.5 74.5,98.5 73.5,98.5C 73.5,94.1667 73.5,89.8333 73.5,85.5C 74.9789,84.0101 75.8122,82.3434 76,80.5C 77.3102,81.1301 78.1435,82.1301 78.5,83.5 Z"/></g>
<g><path style="opacity:1" fill="#191d37" d="M 71.5,85.5 C 72.1667,85.5 72.8333,85.5 73.5,85.5C 73.5,89.8333 73.5,94.1667 73.5,98.5C 72.8333,98.5 72.1667,98.5 71.5,98.5C 71.5,94.1667 71.5,89.8333 71.5,85.5 Z"/></g>
</svg>
